<?xml version="1.0" standalone="no"?>
<!DOCTYPE svg PUBLIC "-//W3C//DTD SVG 20010904//EN"
 "http://www.w3.org/TR/2001/REC-SVG-20010904/DTD/svg10.dtd">
<svg version="1.0" xmlns="http://www.w3.org/2000/svg"
 width="514.000000pt" height="387.000000pt" viewBox="0 0 514.000000 387.000000"
 preserveAspectRatio="xMidYMid meet">
<metadata>
Created by potrace 1.16, written by Peter Selinger 2001-2019
</metadata>
<g transform="translate(0.000000,387.000000) scale(0.100000,-0.100000)"
fill="#000000" stroke="none">
<path d="M3270 3649 c-260 -28 -661 -116 -934 -205 -289 -95 -575 -213 -866
-359 -564 -282 -937 -566 -1063 -809 -27 -53 -31 -71 -32 -141 0 -74 4 -91 59
-230 119 -306 305 -632 502 -881 157 -200 422 -450 604 -570 165 -110 445
-252 590 -301 85 -28 348 -25 495 6 549 116 1166 452 1303 709 75 141 187 471
231 683 16 80 35 158 41 173 17 44 51 81 178 186 134 111 284 265 373 382 33
45 89 140 124 212 101 206 135 380 109 553 -25 173 -67 264 -172 375 -108 114
-216 159 -382 159 -144 0 -253 -35 -380 -121 -34 -23 -65 -39 -68 -35 -4 3
-21 30 -38 58 -39 67 -97 111 -182 138 -56 18 -95 22 -237 25 -93 1 -208 -2
-255 -7z m342 -226 c58 -27 68 -53 40 -115 -101 -220 -784 -647 -1447 -903
-427 -165 -899 -277 -1225 -292 -142 -6 -224 4 -286 33 -54 26 -61 51 -30 112
79 155 377 378 821 614 573 305 1188 505 1755 572 19 2 100 3 180 2 124 -2
152 -5 192 -23z m881 -174 c117 -32 195 -206 168 -371 -23 -142 -74 -254 -181
-397 -98 -131 -230 -255 -251 -234 -5 5 -14 61 -19 124 -6 63 -27 211 -46 329
-40 239 -41 304 -5 386 58 129 202 200 334 163z m-3305 -1451 c6 -7 27 -53 47
-103 183 -442 537 -881 912 -1126 129 -85 123 -80 83 -73 -124 22 -344 115
-507 215 -167 102 -369 286 -515 469 -141 177 -348 531 -348 596 0 21 5 23 63
27 158 9 255 7 265 -5z"/>
</g>
</svg>
